This is a stereoscopic 3D rip of IMAX Bugs! 3D, for new 3D TVs or computers with Nvidia 3D Vision. Tested with Stereoscopic Player. Enjoy!

Title: Bugs! (2003)
Rated: Not Rated
Runtime: 40 Minutes
Genre: Short | Documentary

Description:
Highlighting the extraordinary world of insects, Bugs! focuses on the life cycles of a praying mantis and a butterfly from their birth to their inevitable demise in the tropical rainforests of Southeast Asia. More than 40 tropical insects are featured, captured in minute detail for the first time in 3D Large Format; see a caterpillar hatch from a single tiny egg to metamorphose into a butterfly, and watch as a praying mantis snaps up a fly for its dinner.
-From IMBD Page: http://www.imdb.com/title/tt0337587/

General
ID : 2039 (0x7F7)
Complete name : [filepath]\IMAX Bugs 3D (Sky TV Rip).ts
Format : MPEG-TS
File size : 2.86 GiB
Duration : 38mn 23s
Overall bit rate : 10.6 Mbps

Video
ID : 514 (0x202)
Menu ID : 1302 (0x516)
Format : AVC
Format/Info : Advanced Video Codec
Format version : Version 2
Format profile : Main@L4.0
Format settings, CABAC : Yes
Format settings, ReFrames : 4 frames
Format settings, GOP : M=1, N=24
Codec ID : 27
Duration : 38mn 22s
Bit rate : 9 539 Kbps
Width : 1 920 pixels
Height : 1 080 pixels
Display aspect ratio : 16:9
Frame rate : 25.000 fps
Color space : YUV
Chroma subsampling : 4:2:0
Bit depth : 8 bits
Scan type : Interlaced
Scan order : Top Field First
Bits/(Pixel*Frame) : 0.184
Stream size : 2.56 GiB (90%)
Color primaries : BT.709-5, BT.1361, IEC 61966-2-4, SMPTE RP177
Transfer characteristics : BT.709-5, BT.1361
Matrix coefficients : BT.709-5, BT.1361, IEC 61966-2-4 709, SMPTE RP177

Audio #1
ID : 642 (0x282)
Menu ID : 1302 (0x516)
Format : AC-3
Format/Info : Audio Coding 3
Mode extension : ME (music and effects)
Codec ID : 6
Duration : 38mn 22s
Bit rate mode : Constant
Bit rate : 192 Kbps
Channel(s) : 2 channels
Channel positions : Front: L R
Sampling rate : 48.0 KHz
Bit depth : 16 bits
Compression mode : Lossy
Delay relative to video : 40ms
Stream size : 52.7 MiB (2%)
Language : nar

Audio #2
ID : 662 (0x296)
Menu ID : 1302 (0x516)
Format : AC-3
Format/Info : Audio Coding 3
Mode extension : CM (complete main)
Codec ID : 6
Duration : 38mn 22s
Bit rate mode : Constant
Bit rate : 384 Kbps
Channel(s) : 6 channels
Channel positions : Front: L C R, Side: L R, LFE
Sampling rate : 48.0 KHz
Bit depth : 16 bits
Compression mode : Lossy
Delay relative to video : -36ms
Stream size : 105 MiB (4%)
Language : English

Text
ID : 2305 (0x901)-888
Menu ID : 1302 (0x516)
Format : Teletext Subtitle
Language : English